<?xml version="1.0" standalone="no"?>
<!DOCTYPE svg PUBLIC "-//W3C//DTD SVG 1.1//EN" "http://www.w3.org/Graphics/SVG/1.1/DTD/svg11.dtd" >
<svg xmlns="http://www.w3.org/2000/svg">
<metadata>
Created by FontForge 20120731 at Mon May 16 13:56:53 2016
 By admin
</metadata>
<defs>
<font id="iconfont" horiz-adv-x="1024" >
  <font-face 
    font-family="iconfont"
    font-weight="500"
    font-stretch="normal"
    units-per-em="1024"
    panose-1="2 0 6 3 0 0 0 0 0 0"
    ascent="896"
    descent="-128"
    x-height="792"
    bbox="-1 -161 1084 914"
    underline-thickness="50"
    underline-position="-100"
    unicode-range="U+0078-E62A"
  />
<missing-glyph horiz-adv-x="374" 
d="M34 0v682h272v-682h-272zM68 34h204v614h-204v-614z" />
    <glyph glyph-name=".notdef" horiz-adv-x="374" 
d="M34 0v682h272v-682h-272zM68 34h204v614h-204v-614z" />
    <glyph glyph-name=".null" horiz-adv-x="0" 
 />
    <glyph glyph-name="nonmarkingreturn" horiz-adv-x="341" 
 />
    <glyph glyph-name="x" unicode="x" horiz-adv-x="1001" 
d="M281 543q-27 -1 -53 -1h-83q-18 0 -36.5 -6t-32.5 -18.5t-23 -32t-9 -45.5v-76h912v41q0 16 -0.5 30t-0.5 18q0 13 -5 29t-17 29.5t-31.5 22.5t-49.5 9h-133v-97h-438v97zM955 310v-52q0 -23 0.5 -52t0.5 -58t-10.5 -47.5t-26 -30t-33 -16t-31.5 -4.5q-14 -1 -29.5 -0.5
t-29.5 0.5h-32l-45 128h-439l-44 -128h-29h-34q-20 0 -45 1q-25 0 -41 9.5t-25.5 23t-13.5 29.5t-4 30v167h911zM163 247q-12 0 -21 -8.5t-9 -21.5t9 -21.5t21 -8.5q13 0 22 8.5t9 21.5t-9 21.5t-22 8.5zM316 123q-8 -26 -14 -48q-5 -19 -10.5 -37t-7.5 -25t-3 -15t1 -14.5
t9.5 -10.5t21.5 -4h37h67h81h80h64h36q23 0 34 12t2 38q-5 13 -9.5 30.5t-9.5 34.5q-5 19 -11 39h-368zM336 498v228q0 11 2.5 23t10 21.5t20.5 15.5t34 6h188q31 0 51.5 -14.5t20.5 -52.5v-227h-327z" />
    <glyph glyph-name="uniE600" unicode="&#xe600;" 
d="M960 96l-279 132q60 48 89.5 130.5t29.5 153.5v160q0 52 -42 104.5t-109.5 86t-136.5 33.5t-136.5 -33.5t-109.5 -86t-42 -104.5v-160q0 -66 30.5 -150.5t90.5 -132.5l-281 -133q-7 -3 -17.5 -9t-28.5 -22.5t-18 -32.5v-96q0 -26 19 -45t45 -19h896q26 0 45 19t19 45v96
q0 17 -16 33t-32 23z" />
    <glyph glyph-name="uniE601" unicode="&#xe601;" 
d="M496 814q93 0 174 -35t142 -96t96 -142.5t35 -173.5t-35 -174t-96 -143t-142 -96t-174 -35t-174.5 35t-142 96t-96 143t-35.5 174t35.5 173.5t96 142.5t142 96t174.5 35v0zM777 452q18 18 19 45t-17.5 45.5t-45 18t-44.5 -18.5l-288 -287l-99 98q-18 18 -44.5 18.5
t-45 -18t-19 -43t18.5 -43.5l141 -142q19 -18 48.5 -17.5t47.5 18.5l-4 -4zM777 452z" />
    <glyph glyph-name="uniE602" unicode="&#xe602;" 
d="M695 420.5q0 105.5 -75 181t-181 75.5t-181 -75.5t-75 -181t75 -180.5t181 -75t181 75t75 180.5zM987 -55q0 -30 -21.5 -51.5t-51.5 -21.5q-31 0 -51 22l-196 195q-102 -71 -228 -71q-82 0 -156.5 32t-128.5 86t-85.5 128.5t-31.5 156t31.5 156t85.5 128.5t128.5 86
t156.5 32t156.5 -32t128.5 -86t85.5 -128.5t31.5 -155.5q0 -126 -71 -228l196 -196q21 -22 21 -52z" />
    <glyph glyph-name="uniE603" unicode="&#xe603;" 
d="M829 701q-86 86 -201.5 116.5t-231 0t-201.5 -116.5t-116.5 -201.5t0 -231t116.5 -201.5t201.5 -116.5t231 0t201.5 116.5t116.5 201.5t0 231t-116.5 201.5zM769 217l-90 -90l-164 165l-165 -165l-90 90l165 164l-165 165l90 89l165 -164l164 164l90 -89l-165 -165z" />
    <glyph glyph-name="uniE604" unicode="&#xe604;" 
d="M511 832q-91 0 -174 -35.5t-142.5 -95.5t-95 -143t-35.5 -174t35.5 -173.5t95 -142.5t142.5 -95.5t174 -35.5t174 35.5t143 95.5t95.5 142.5t35.5 173.5t-35.5 174t-95.5 143t-143 95.5t-174 35.5zM509 105q-23 1 -40 18t-18 40q0 26 18 44.5t44 17.5q24 -1 40.5 -17.5
t17.5 -40.5q1 -26 -17.5 -44t-44.5 -18zM572 331q0 -23 -15 -39.5t-36 -16.5h-18q-21 0 -35.5 16.5t-14.5 39.5l-22 277q0 23 15 39t36 16h59q21 0 35.5 -16t14.5 -39z" />
    <glyph glyph-name="uniE605" unicode="&#xe605;" 
d="M512 896q-139 0 -257 -68.5t-186.5 -186.5t-68.5 -257t68.5 -257t186.5 -186.5t257 -68.5t257 68.5t186.5 186.5t68.5 257t-68.5 257t-186.5 186.5t-257 68.5zM512 0q-159 0 -271.5 112.5t-112.5 271.5t112.5 271.5t271.5 112.5t271.5 -112.5t112.5 -271.5t-112.5 -271.5
t-271.5 -112.5zM320 384q0 80 56 136t136 56t136 -56t56 -136t-56 -136t-136 -56t-136 56t-56 136z" />
    <glyph glyph-name="uniE606" unicode="&#xe606;" 
d="M849 -41h-656q-34 0 -58 24t-24 58v376h51q0 -142 -2 -327q0 -33 31.5 -57.5t67.5 -24.5h524q36 0 67 24.5t31 57.5q-1 190 -1 327h50v-376q0 -34 -23.5 -58t-57.5 -24zM357 418h98h17h98h16h99h16h98h17v-361h-17h-98h-16h-99h-16h-98h-17h-98h-16h-99h-16v361h16h99h16
zM701 73h98v99h-98v-99zM701 188h98v98h-98v-98zM701 303h98v99h-98v-99zM586 73h99v99h-99v-99zM586 188h99v98h-99v-98zM586 303h99v99h-99v-99zM472 73h98v99h-98v-99zM472 188h98v98h-98v-98zM472 303h98v99h-98v-99zM357 73h98v99h-98v-99zM357 188h98v98h-98v-98z
M357 303h98v99h-98v-99zM242 73h99v99h-99v-99zM242 188h99v98h-99v-98zM242 303h99v99h-99v-99zM111 630q0 34 24 58t58 24h33v-163h131v163h328v-163h131v163h33q34 0 57.5 -24t23.5 -58v-180h-819v180zM701 729q0 20 14.5 34.5t35 14.5t34.5 -14.5t14 -34.5v-164h-98v164
zM242 729q0 20 14.5 34.5t35 14.5t35 -14.5t14.5 -34.5v-164h-99v0v0v0v0v0v1v0v1v1v0v1v1v1v1v1v1v1v1v1v1v1v1v1v1v1v1v1v1v1v1v1v1v1v1v1v2v1v1v1v1v1v1v1v1v2v1v1v1v1v2v1v1v1v2v1v1v2v1v1v1v2v1v2v1v1v2v1v2v1v1v2v1v2v1v2v1v2v1v2v1v2v1v2v1v2v2v1v2v1v2v2v1v2v1v2v2
v1v2v2v1v2v2v2v1v2v2v1v2v2v2v2v1v2v2v2v1v2v2v2v2v9z" />
    <glyph glyph-name="uniE607" unicode="&#xe607;" 
d="M0 -128h1024v1024l-1024 -1024v0zM651 -40l-202 197l1 82l173 -132l299 301l26 -77l-297 -371v0z" />
    <glyph glyph-name="uniE608" unicode="&#xe608;" 
d="M447 382l576 514v-1024zM447 382z" />
    <glyph glyph-name="uniE609" unicode="&#xe609;" 
d="M512 744q149 0 254.5 -105.5t105.5 -254.5t-105.5 -254.5t-254.5 -105.5t-254.5 105.5t-105.5 254.5t105.5 254.5t254.5 105.5zM512 864q-98 0 -186.5 -38t-153 -102.5t-102.5 -153t-38 -186.5t38 -186.5t102.5 -153t153 -102.5t186.5 -38t186.5 38t153 102.5t102.5 153
t38 186.5t-38 186.5t-102.5 153t-153 102.5t-186.5 38z" />
    <glyph glyph-name="uniE60A" unicode="&#xe60a;" 
d="M896 896h-768q-53 0 -90.5 -37.5t-37.5 -90.5v-768q0 -53 37.5 -90.5t90.5 -37.5h768q53 0 90.5 37.5t37.5 90.5v768q0 53 -37.5 90.5t-90.5 37.5zM960 0q0 -27 -18.5 -45.5t-45.5 -18.5h-768q-27 0 -45.5 18.5t-18.5 45.5v768q0 26 19 45t45 19h768q27 0 45.5 -18.5
t18.5 -45.5v-768z" />
    <glyph glyph-name="uniE60B" unicode="&#xe60b;" 
d="M577 386l-576 -514v1024zM577 386z" />
    <glyph glyph-name="uniE60C" unicode="&#xe60c;" 
d="M641 384l299 299q17 17 19.5 38.5t-10.5 34.5l-65 65q-13 13 -34.5 10.5t-38.5 -19.5l-299 -299l-299 299q-17 17 -38.5 19.5t-34.5 -10.5l-65 -65q-13 -13 -10.5 -34.5t19.5 -38.5l299 -299l-299 -299q-17 -17 -19.5 -38.5t10.5 -34.5l65 -65q13 -13 34.5 -10.5
t38.5 19.5l299 299l299 -299q17 -17 38.5 -19.5t34.5 10.5l65 65q13 13 10.5 34.5t-19.5 38.5z" />
    <glyph glyph-name="uniE60D" unicode="&#xe60d;" 
d="M513 833q-91 0 -174 -35.5t-143.5 -95.5t-96 -143t-35.5 -174.5t35.5 -174.5t96 -143t143.5 -95.5t174 -35.5t174 35.5t143 95.5t95.5 143t35.5 174.5t-35.5 174.5t-95.5 143t-143 95.5t-174 35.5zM783 510l-310 -317q-2 -3 -4 -5q-9 -9 -22 -9t-22 9l-154 157
q-9 9 -9 22t9 22.5t22 9.5t22 -10l131 -133l293 298q9 10 22 10t22 -9.5t9 -22.5t-9 -22z" />
    <glyph glyph-name="uniE60E" unicode="&#xe60e;" 
d="M513 833q-91 0 -174 -35.5t-143.5 -95.5t-96 -143t-35.5 -174.5t35.5 -174.5t96 -143t143.5 -95.5t174 -35.5t174 35.5t143 95.5t95.5 143t35.5 174.5t-35.5 174.5t-95.5 143t-143 95.5t-174 35.5zM691 251q9 -9 9 -22t-9.5 -22.5t-22.5 -9.5t-22 9l-133 134l-133 -134
q-10 -9 -23 -9t-22 9.5t-9 22.5t9 22l133 133l-133 133q-9 10 -9 23t9 22t22 9t23 -9l133 -133l133 133q9 9 22 9t22.5 -9t9.5 -22t-9 -23l-134 -133z" />
    <glyph glyph-name="uniE60F" unicode="&#xe60f;" 
d="M512.5 893q-103.5 0 -197.5 -40t-162 -108.5t-108.5 -162.5t-40.5 -197.5t40.5 -198t108.5 -162.5t162 -108t197.5 -40t198 40t162.5 108t108.5 162.5t40.5 198t-40.5 197.5t-108.5 162.5t-162.5 108.5t-198 40zM470 624q0 17 12 29t28.5 12t28.5 -12t12 -29v-311
q0 -17 -12 -29t-28.5 -12t-28.5 12t-12 29v311zM510.5 103q-23.5 0 -40.5 17t-17 41.5t17 41.5t40.5 17t40.5 -17t17 -41.5t-17 -41.5t-40.5 -17z" />
    <glyph glyph-name="uniE610" unicode="&#xe610;" 
d="M512.5 893q-103.5 0 -197.5 -40t-162 -108.5t-108.5 -162.5t-40.5 -197.5t40.5 -198t108.5 -162.5t162 -108t197.5 -40t198 40t162.5 108t108.5 162.5t40.5 198t-40.5 197.5t-108.5 162.5t-162.5 108.5t-198 40zM514.5 669q26.5 0 45 -18.5t18.5 -45t-18.5 -45.5t-45 -19
t-45.5 19t-19 45.5t19 45t45.5 18.5zM570 108h-45q-18 0 -33 13t-15 27v260h-16q-18 0 -30.5 12.5t-12.5 30t12.5 30t30.5 12.5h53q37 -3 37 -29v-270h19q18 0 30.5 -12.5t12.5 -30.5t-12.5 -30.5t-30.5 -12.5z" />
    <glyph glyph-name="uniE611" unicode="&#xe611;" 
d="M939 -106h-876q-26 0 -44.5 18.5t-18.5 44.5v876q0 26 18.5 44.5t44.5 18.5h876q26 0 44.5 -18.5t18.5 -44.5v-876q0 -26 -18.5 -44.5t-44.5 -18.5zM814 708l-376 -438l-250 188l-63 -126l313 -250l439 501z" />
    <glyph glyph-name="uniE612" unicode="&#xe612;" 
d="M16 880v-992h992v992h-992zM946 -50h-868v868h868v-868zM264 632h496v-496h-496v496z" />
    <glyph glyph-name="uniE613" unicode="&#xe613;" 
d="M513 894q-104 0 -198.5 -40t-162.5 -108.5t-108.5 -163t-40.5 -198t40.5 -198t108.5 -163t162.5 -109t198.5 -40.5t198 40.5t162.5 109t109 163t40.5 198t-40.5 198t-109 163t-162.5 108.5t-198 40zM511 130q-22 0 -37.5 16t-15.5 38.5t15.5 38t37.5 15.5t37 -15.5
t15 -38t-15 -38.5t-37 -16zM658 470q-11 -21 -26 -36q-14 -15 -54 -51q-11 -10 -17.5 -18t-9.5 -14t-4.5 -12.5t-5.5 -22.5q-6 -34 -37 -34q-17 0 -28 11t-11 33q0 27 8 47.5t22 35.5t36 36q21 18 30 27.5t15 21t6 24.5q0 27 -19 45t-48 18q-35 0 -51.5 -18.5t-27.5 -53.5
q-11 -37 -41 -37q-18 0 -30 13t-12 28q0 31 19.5 63t56 53t86.5 21q45 0 80.5 -17.5t54.5 -48t19 -65.5q0 -28 -11 -49z" />
    <glyph glyph-name="uniE614" unicode="&#xe614;" 
d="M888 683q-7 7 -17 7l-69 -1v34q0 12 -8.5 19t-19.5 5l-263 -54l-263 47q-10 2 -18.5 -5.5t-8.5 -18.5v-28l-69 -1q-10 0 -17 -7t-7 -17v-616q0 -10 7 -17t17 -7l719 2q10 0 17 7t7 17v617q0 10 -7 17zM535 81v569l220 44v-568zM268 688l220 -39v-569l-220 39v569z
M175 640h46v-541q0 -8 5.5 -14.5t13.5 -8.5l30 -5l-95 -1v570zM848 72h-118l53 11q9 2 14 8.5t5 14.5v536h46v-570zM441 598l-121 23q-7 1 -12 -2.5t-6.5 -10t2.5 -12t10 -6.5l122 -23h2q14 0 16 13q1 6 -2.5 11.5t-10.5 6.5zM441 515l-121 22q-7 2 -12 -2t-6.5 -10.5
t2.5 -11.5t10 -6l122 -23h2q14 0 16 13q1 6 -2.5 11.5t-10.5 6.5zM441 431l-121 23q-7 1 -12 -2.5t-6.5 -10t2.5 -12t10 -6.5l122 -23h2q14 0 16 13q1 6 -2.5 11.5t-10.5 6.5zM441 348l-121 22q-7 2 -12 -2t-6.5 -10.5t2.5 -11.5t10 -6l122 -23h2q14 0 16 12q1 7 -2.5 12.5
t-10.5 6.5zM441 264l-121 23q-7 1 -12 -2.5t-6.5 -10t2.5 -12t10 -6.5l122 -23h2q14 0 16 13q1 6 -2.5 11.5t-10.5 6.5zM441 181l-121 22q-7 2 -12 -2t-6.5 -10.5t2.5 -11.5t10 -7l122 -22h2q14 0 16 12q1 7 -2.5 12.5t-10.5 6.5zM703 626l-122 -26q-6 -1 -9.5 -6.5
t-2.5 -11.5q3 -13 16 -13q1 0 3 1l121 25q7 2 10.5 7.5t2 11.5t-7 9.5t-11.5 2.5zM703 543l-122 -26q-6 -2 -9.5 -7.5t-2.5 -11.5q3 -12 16 -12h3l121 26q7 1 10.5 6.5t2 12t-7 10t-11.5 2.5zM703 459l-122 -26q-6 -1 -9.5 -6.5t-2.5 -11.5q3 -13 16 -13h3l121 26
q7 2 10.5 7.5t2 11.5t-7 9.5t-11.5 2.5zM703 376l-122 -26q-6 -2 -9.5 -7.5t-2.5 -11.5q3 -12 16 -12h3l121 26q7 1 10.5 6.5t2 12t-7 10t-11.5 2.5zM703 292l-122 -26q-6 -1 -9.5 -6.5t-2.5 -11.5q3 -13 16 -13h3l121 26q7 2 10.5 7.5t2 11.5t-7 9.5t-11.5 2.5zM703 208
l-122 -25q-6 -2 -9.5 -7.5t-2.5 -11.5q3 -12 16 -12h3l121 26q7 1 10.5 6.5t2 12t-7 10t-11.5 1.5z" />
    <glyph glyph-name="uniE615" unicode="&#xe615;" 
d="M825 608l53 21l47 64l-63 64l-64 -48l-21 -53l-158 -158l51 -45zM918 177l-286 250l-11 8l-81 72q5 24 7 50.5t1 64.5t-14 74t-39 62q-74 74 -178 74q-25 0 -49 -5q-7 -2 -9.5 -9t3.5 -12l107 -108l22 -105l-88 -88l-104 22l-108 108q-6 5 -13 3t-8 -10q-12 -62 6 -122
t63 -105q54 -54 160 -54q44 0 91 9l328 -378q42 -42 100.5 -42t99.5 41.5t41 100t-41 99.5zM843 52.5q-10 -10.5 -24.5 -10.5t-24.5 10q-11 11 -11 25.5t10.5 24.5t25 10t24.5 -10t10 -24.5t-10 -25zM372 288q-10 9 -23 9t-22 -9l-211 -211q-9 -9 -9 -22.5t9 -22.5l82 -82
q10 -10 23 -10t23 10l204 204q9 9 9 22.5t-9 22.5z" />
    <glyph glyph-name="uniE616" unicode="&#xe616;" 
d="M886 696h-282l-27 67q-10 24 -35 41t-51 17h-166q-26 0 -51 -17t-35 -41l-27 -67h-74q-52 0 -88.5 -36.5t-36.5 -88.5v-499q0 -52 36.5 -88.5t88.5 -36.5h748q52 0 88.5 36.5t36.5 88.5v499q0 52 -36.5 88.5t-88.5 36.5zM512 114q-86 0 -147 60.5t-61 147t61 147.5
t147 61t147 -61t61 -147.5t-61 -147t-147 -60.5zM803 509q-17 0 -29 12t-12 29.5t12 29.5t29 12t29.5 -12t12.5 -29.5t-12.5 -29.5t-29.5 -12z" />
    <glyph glyph-name="uniE617" unicode="&#xe617;" 
d="M786 746q49 -35 86 -78t64 -93.5t41 -106.5t14 -114q0 -99 -38 -186.5t-103 -152t-152 -102.5t-187 -38q-98 0 -185 38t-152.5 102.5t-103 152t-37.5 186.5q0 57 13.5 111.5t38 103.5t61 92t81.5 77q23 17 50.5 13t44.5 -26.5t13 -50.5t-27 -45q-67 -49 -103 -121
t-36 -154q0 -71 27 -133.5t73.5 -109t109 -73.5t133 -27t133 27t109 73.5t74 109t27.5 133.5q0 83 -38.5 157.5t-108.5 122.5q-23 16 -28 44t11 52q16 22 44 27t51 -11v0zM511 351q-27 0 -47 19.5t-20 47.5v407q0 28 20 48t47 20q29 0 49 -20t20 -48v-407q0 -28 -20 -47.5
t-49 -19.5v0zM511 351z" />
    <glyph glyph-name="uniE618" unicode="&#xe618;" 
d="M987 407q-7 7 -400 382q-30 30 -74.5 28.5t-80.5 -36.5q-12 -12 -201.5 -186.5t-198.5 -182.5q-16 -16 -16.5 -39.5t19.5 -42.5q18 -15 41.5 -14.5t39.5 12.5q9 7 83.5 75.5t156 143.5t96.5 89q61 54 122 0q11 -11 167.5 -157t167.5 -156q16 -13 40 -13t43 15
q17 15 16 38.5t-21 43.5zM451 548q-9 -9 -87 -79t-150 -136l-73 -66v-193q0 -24 16.5 -36.5t45.5 -12.5h182v150q0 33 30 33h97h92q30 0 30 -33v-150h187q27 0 44 16.5t17 38.5v186q-292 267 -308 282q-29 25 -63 24.5t-60 -24.5z" />
    <glyph glyph-name="uniE619" unicode="&#xe619;" horiz-adv-x="1060" 
d="M861 504v311h-133v-173l-198 207l-530 -552v-35h132v-345h332h132h331v345h133v35z" />
    <glyph glyph-name="uniE61A" unicode="&#xe61a;" 
d="M193 654q0 -54 22 -102t62 -82q33 -34 39 -45q3 -5 3 -26v-21q0 -16 -17 -36q-18 -22 -51 -41q-70 -41 -132 -41q-38 0 -65.5 -27.5t-27.5 -66.5v-64q0 -19 12 -33t30 -17v-128q0 -22 15 -37t36 -15h786q21 0 36 15t15 37v128q18 3 30 17t12 33v64q0 39 -27.5 66.5
t-65.5 27.5q-62 0 -132 41q-33 19 -51 41q-17 19 -17 36v27q0 16 3 20q6 11 39 45q40 34 62 82.5t22 101.5q0 100 -70 171q-37 37 -88 54t-150 17q-115 0 -168.5 -16.5t-91.5 -54.5q-70 -71 -70 -171zM853 -25h-682v76h682v-76zM480 793q74 0 124 -10.5t76 -30.5t37 -43.5
t11 -54.5q0 -66 -50 -107v-1q-1 0 -3 -2q-45 -46 -58 -70q-9 -16 -12 -34q-3 -13 -3 -35v-9v-8v-4v-4v-1v-1q0 -46 30 -88.5t86 -75.5q43 -26 93 -42q45 -13 84 -15v-3h-766v3q39 2 84 15q50 16 93 42q56 33 86 75.5t30 88.5v21q0 22 -2 35q-3 20 -12 38q-13 25 -59 72
q-2 1 -3 3q-50 41 -50 107q0 61 46 100t138 39z" />
    <glyph glyph-name="uniE61B" unicode="&#xe61b;" horiz-adv-x="1112" 
d="M725 402h105l212 183q-14 34 -31 63zM573 914v-87l86 75q-46 10 -86 12zM1018 402l61 53q-5 35 -17 75l-149 -128h105zM842 826l-269 -232v-90l325 280q-26 22 -56 42zM722 885l-149 -129v-90l219 189q-37 19 -70 30zM981 694q-21 28 -44 52l-364 -313v-31h69zM522 914
q-106 -5 -200.5 -49.5t-163 -116t-109 -168.5t-40.5 -203q0 -185 114 -331l399 342v526zM557 351l-401 -344q76 -79 177 -123.5t214 -44.5q106 0 203.5 40t168.5 108.5t115.5 163.5t49.5 200h-527z" />
    <glyph glyph-name="uniE61C" unicode="&#xe61c;" horiz-adv-x="1028" 
d="M387 160q0 88 39 160q-117 -8 -214 -69.5t-153 -161.5t-56 -217h535q-71 48 -111 124t-40 164zM451 384h16q79 93 199 118q38 58 38 135q0 105 -75 180.5t-181 75.5t-181 -75.5t-75 -180.5q2 -104 78 -178.5t181 -74.5zM986 157l-7 3l-3 3q6 3 10 7q18 9 27.5 26.5
t7.5 37.5q-5 44 -23 70q-28 48 -86 29q-2 0 -5 -1.5t-5 -1.5v6q16 40 -16 77q-19 19 -38 25q-24 10 -45 10q-14 0 -26 -5t-19.5 -15t-10.5 -14.5t-8 -13.5l-3 3q0 3 -3 3q0 2 -1.5 5t-1.5 5q-22 32 -55 32h-9q-4 -1 -12 -2t-12.5 -2t-11.5 -3t-12 -6q-34 -17 -46.5 -39.5
t-5.5 -56.5v-6q-6 0 -9 3q-43 14 -74 -22q-18 -25 -22 -52q-20 -67 41 -96q-3 -3 -6 -3q-36 -13 -42 -61q0 -58 36 -89q23 -24 60 -19q7 0 10 3h3v-3q-14 -44 19 -77q23 -23 61 -32q13 -3 29 -3q42 0 64 44l3 4l3 -4l4 -3q0 -3 6 -9q23 -37 67 -32q35 5 61 22q49 34 29 90h3
h6q57 -14 90 38q14 24 19 58q0 41 -41 67zM912 154q6 -35 32 -48q2 0 3.5 -2t2.5 -2h4q4 -2 5 -3t1 -6q0 -15 -10 -29q-6 -10 -12 -10h-10q-6 0 -10 4h-3q-43 4 -64 -26q-17 -26 -6 -64q2 -5 1.5 -6.5t-4.5 -6.5q-20 -13 -39 -13l-3 4q0 3 -3 6l-3 3q-20 35 -58 35
q-36 0 -58 -35q-8 -13 -9 -13q-7 0 -13 4q-21 5 -35 19v3q0 3 3 10q11 32 -6 54q-16 26 -48 26h-7h-3q-13 0 -19 -4h-10q-16 16 -16 48q20 8 35 29q15 24 10 51q-5 30 -35 45q-10 5 -11 8t1 15q4 17 13 25l3 3h3q25 -8 45 -3q27 7 40 29.5t8 53.5q-1 5 -1 8v4l1 1q3 3 16 10
q19 6 29 6l3 -3q2 -2 3.5 -5t3.5 -5q21 -32 57 -32q17 0 32.5 9.5t22.5 26.5q6 12 9 12t13 -3t13 -3q3 -2 8 -5t8 -5q3 -3 3 -6q-9 -22 -3 -45q5 -24 26 -38.5t47 -9.5q7 0 20 7q6 0 6 3q3 0 6 -7q8 -11 13 -38l-6 -16q-13 -6 -26 -19q-24 -20 -19 -51zM739 288
q-53 0 -90.5 -37.5t-37.5 -90.5t37.5 -90.5t90.5 -37.5t90.5 37.5t37.5 90.5t-37.5 90.5t-90.5 37.5zM739.5 96q-26.5 0 -45.5 19t-19 45t19 45t45.5 19t45 -19t18.5 -45t-18.5 -45t-45 -19z" />
    <glyph glyph-name="uniE61D" unicode="&#xe61d;" horiz-adv-x="1025" 
d="M737 275v-2h-1l-126 -125h127v-49h-176l-66 -67l-11 -10l11 10l-176 -39l24 106h-220v49h231l5 21l-11 -11l115 115h-340v49h390l125 126h-515v49h564l151 151l11 11l1 1l10 10v76v13v55q0 34 -20 58t-49 24h-722q-29 0 -49 -24t-20 -58v-860q0 -34 20 -58t49 -24h722
q29 0 49 24t20 58v2v23v419zM123 672h614v-49h-614v49zM1014 631l-54 54q-11 11 -27.5 11t-27.5 -11l-31 -30l108 -107l30 30q11 12 12 27t-10 26zM395 175l107 -107l468 468l-107 107zM841 538l23 -24l-330 -330l-23 23zM356 28l132 26l-106 105z" />
    <glyph glyph-name="uniE61E" unicode="&#xe61e;" 
d="M954 -45l-109 109q40 59 40 129q0 98 -69 166.5t-166.5 68.5t-166 -68.5t-68.5 -166t68.5 -166.5t166.5 -69q70 0 129 39l108 -108q11 -10 25 -10t25 10l17 17q10 10 10 24.5t-10 24.5zM776 133q-21 -45 -66 -67q-30 -14 -60 -14q-59 0 -100 41.5t-41 100t41 99.5
t99.5 41t100 -41t41.5 -100q0 -31 -15 -60zM343 149h-115q-15 0 -25.5 10.5t-10.5 25.5t10.5 25.5t25.5 10.5h113q4 50 24 95h-137q-15 0 -25.5 10.5t-10.5 25.5t10.5 25.5t25.5 10.5h181q54 67 135 95h-316q-15 0 -25.5 10.5t-10.5 25.5t10.5 25.5t25.5 10.5h551
q15 0 25.5 -10.5t10.5 -25.5t-10.5 -25.5t-25.5 -10.5h-27q73 -26 125 -83.5t70 -133.5v515q0 44 -31.5 76t-76.5 32h-671q-44 0 -76 -32t-32 -76v-775q0 -45 32 -76.5t76 -31.5h394q-87 25 -146.5 93t-72.5 158zM228 722h551q15 0 25.5 -10.5t10.5 -25t-10.5 -25
t-25.5 -10.5h-551q-15 0 -25.5 10.5t-10.5 25t10.5 25t25.5 10.5z" />
    <glyph glyph-name="uniE61F" unicode="&#xe61f;" 
d="M273 678q-17 -25 -48 -25h-159q-23 0 -40 -16.5t-17 -40.5v-493q0 -23 16.5 -40t40.5 -17h645q23 0 40 17t17 40v493q0 24 -17 40.5t-40 16.5h-159q-31 0 -48 25l-42 64q-17 25 -47 25h-53q-30 0 -47 -25zM1021 451q0 37 -16.5 52.5t-41.5 11t-53.5 -21t-53.5 -42.5
q-50 -49 -50 -82t50 -83q25 -26 53.5 -42.5t53.5 -21t41.5 11.5t16.5 52v165z" />
    <glyph glyph-name="uniE620" unicode="&#xe620;" 
d="M1024 640q0 42 -30 72t-72 30h-164l-92 103h-308l-92 -103h-164q-42 0 -72 -30t-30 -72v-614q0 -43 30 -73t72 -30h820q42 0 72 30t30 73v614zM512 77q-108 0 -182 74t-74 181.5t74 182t182 74.5t182 -74.5t74 -182t-74 -181.5t-182 -74zM396 449q-48 -48 -48 -116
t48 -116t116 -48t116 48t48 116t-48 116t-116 48t-116 -48z" />
    <glyph glyph-name="uniE621" unicode="&#xe621;" 
d="M509.5 525q-58.5 0 -99.5 -41.5t-41 -99.5t41 -99.5t99.5 -41.5t100 41.5t41.5 99.5t-41.5 99.5t-100 41.5zM512 475q-38 0 -64.5 -26.5t-26.5 -64.5h-22q0 47 33 80t80 33v-22zM971 821h-922q-21 0 -35.5 -14.5t-14.5 -34.5v-776q0 -20 14.5 -34.5t35.5 -14.5h922
q21 0 35.5 14.5t14.5 34.5v776q0 20 -14.5 34.5t-35.5 14.5zM510 124q-108 0 -184 76t-76 184t76 184t184 76t184 -76t76 -184t-76 -184t-184 -76zM510 202q-75 0 -128.5 53.5t-53.5 128.5t53.5 128.5t128.5 53.5t128.5 -53.5t53.5 -128.5t-53.5 -128.5t-128.5 -53.5z
M510 608q-93 0 -158.5 -65.5t-65.5 -158.5t65.5 -158.5t158 -65.5t158 65.5t65.5 158.5t-65.5 158.5t-157.5 65.5z" />
    <glyph glyph-name="uniE622" unicode="&#xe622;" 
d="M262 855q-13 15 -33 15q-14 0 -25 -8q-4 -3 -6 -5q-13 -13 -12 -40v-855q-2 -26 12 -39q13 -13 31 -13t31 13l566 435q13 13 13 32q0 18 -13 32z" />
    <glyph glyph-name="uniE623" unicode="&#xe623;" 
d="M347 867h-107q-31 0 -53 -22t-22 -54v-816q0 -31 22 -53t53 -22h107q31 0 53 22t22 53v816q0 32 -22 54t-53 22zM790 867h-106q-31 0 -53.5 -22t-22.5 -54v-816q0 -31 22.5 -53t53.5 -22h106q32 0 54 22t22 53v816q0 32 -22 54t-54 22z" />
    <glyph glyph-name="uniE624" unicode="&#xe624;" 
d="M531 845q0 21 -14.5 36t-35.5 15h-110q-20 0 -34.5 -15t-14.5 -36v-63h209v63zM723 744h-422q-54 0 -92 -39t-38 -95v-603q0 -56 38 -95.5t92 -39.5h411q55 0 98 40t43 95v603q0 56 -38 95t-92 39zM399 233q-39 0 -67.5 29.5t-28.5 71.5q0 17 6 33l90 150l88 -150
q6 -16 6 -33q0 -42 -27.5 -71.5t-66.5 -29.5zM758 268q0 -22 -17 -38t-38.5 -16t-39.5 16t-18 38v327q0 22 18 38t39.5 16t38.5 -16t17 -38v-327z" />
    <glyph glyph-name="uniE625" unicode="&#xe625;" 
d="M695 49q-4 4 -7 0q-9 -8 -20 -19t-28.5 -37t-17.5 -42q0 -27 20.5 -46t49 -19t48.5 19t20 46q1 16 -16.5 41.5t-29.5 38t-19 18.5zM692.5 -64q-10.5 0 -18 7t-7.5 17q0 13 26 38q25 -25 25 -38q0 -10 -7.5 -17t-18 -7zM483 49q-3 4 -7 0q-9 -8 -19.5 -19t-28.5 -37
t-18 -42q0 -27 20.5 -46t49 -19t49 19t20.5 46q0 16 -17 41.5t-29.5 38t-19.5 18.5zM481.5 -64q-10.5 0 -18 7t-7.5 17q0 13 25 38q26 -25 26 -38q0 -10 -7.5 -17t-18 -7zM486 291q-5 4 -9 0l-23 -23q-15 -15 -36 -46t-21 -50q0 -33 25 -56t59.5 -23t59 23t24.5 56
q0 19 -21 50t-35 45.5t-23 23.5zM481.5 146q-15.5 0 -26.5 10.5t-11 24.5q0 19 37 56q37 -37 37 -56q0 -14 -10.5 -24.5t-26 -10.5zM278 52q-4 4 -7 0q-9 -8 -20 -19.5t-28.5 -37t-17.5 -41.5q0 -27 20.5 -46.5t49 -19.5t49 19.5t20.5 46.5q0 16 -17.5 41t-29.5 38t-19 19z
M275.5 -68q-12.5 0 -21.5 8.5t-9 19.5q0 15 30 45q30 -30 30 -45q0 -11 -8.5 -19.5t-21 -8.5zM937 94l-335 335v467h-58v-1l-178 -135h-1v-330l-336 -336h-1v-88l59 1h111q4 30 27 58h-138v5l305 305h182l305 -305v-5h-138q23 -28 26 -58h112l58 -1v88zM544 433h-121v297
l121 92v-389z" />
    <glyph glyph-name="uniE626" unicode="&#xe626;" 
d="M760.5 862q-95.5 0 -162.5 -67l-2 -2l-210 -211l-16 16q-11 11 -26.5 11t-26.5 -11t-11 -26.5t11 -26.5l51 -50l-209 -210q-34 -34 -47 -82v-1q-1 -2 -1 -3q-2 -6 -3 -15q-5 -34 3 -68l1 -1v-1l-51 -51q-21 -22 -26 -52q-1 -4 -1 -8v-4v0v-5q0 -4 1 -9q1 -8 4 -16
q1 -4 2 -6l4 -8q1 -2 3 -5q5 -9 13 -17v0q10 -10 22 -16q5 -3 8 -4q17 -7 35 -7h4q9 1 18 3l8 2q6 2 13 6q12 6 22 16l51 51q3 -1 5 -2h1h1q1 0 2 -0.5t2 -0.5h2q2 -1 3 -1h1h1h2h2q1 -1 2 -1h1h1h2h1h3q1 -1 3 -1h1h2h2h3h1h2h2h3h1h1q1 0 3 1h2h3h1h1q2 0 3 1h2h2h2
q1 1 2 1h2h1h1l1 1q3 0 5 1h1q49 12 84 47h1l1 1l210 209l50 -51q11 -11 26.5 -11t26.5 11t11 26.5t-11 26.5l-16 15l212 213h1l2 2q65 67 65 160q0 95 -67 162.5t-162.5 67.5zM416 447l2 2l158 -158l-43 -44h-315zM876 520l-216 -216l-228 228l2 2l192 193h1l20 20
q22 22 53 35q29 12 60 12q68 0 114 -48q48 -47 48 -114q0 -65 -46 -112z" />
    <glyph glyph-name="uniE627" unicode="&#xe627;" horiz-adv-x="1025" 
d="M896 671h-192v128q0 26 -19 45t-45 19h-256q-26 0 -45 -19t-19 -45v-128h-192q-53 0 -90.5 -37.5t-37.5 -89.5v-511q0 -53 37.5 -90.5t90.5 -37.5h768q53 0 90.5 37.5t37.5 90.5v511q0 52 -37.5 89.5t-90.5 37.5zM384 799h256v-128h-256v128zM768 224h-192v-191h-128v191
h-192v128h192v192h128v-192h192v-128zM768 224z" />
    <glyph glyph-name="uniE628" unicode="&#xe628;" 
d="M495 829q-145 -174 -158 -401q-5 -23 -28.5 -26t-34.5 18l-76 142q-52 -85 -52 -185q0 -119 69.5 -213t178.5 -131q58 -28 51 -75q-5 -32 -34 -44q-16 -6 -32 0q-137 50 -211 123q-68 68 -104 155.5t-36 184.5q0 179 116 313l2 2q1 1 1 2l3 3l2 3l4 3q6 7 11 12l1 1
q68 68 156 104.5t184 36.5q5 0 9 -1zM529 -61q144 174 158 401q5 23 28.5 26t34.5 -18l76 -142q52 85 52 185q0 119 -69.5 213t-178.5 131q-58 28 -51 75q5 32 34 44q16 6 32 0q137 -50 211 -123q68 -68 104 -155.5t36 -184.5q0 -179 -116 -313l-2 -2q-1 -1 -1 -2l-3 -3
q-3 -3 -6 -7l-11 -11l-1 -1q-68 -68 -156 -104.5t-184 -36.5q-5 0 -9 1z" />
    <glyph glyph-name="uniE629" unicode="&#xe629;" 
d="M562 -128v60h-304q-74 0 -124 51q-50 52 -50 123v309h-57v158h422v-158h-56v-172h169v60h157v-431h-157zM603 261v-59h-252v254h57v76h-340v-76h57v-350q0 -54 39 -94q38 -39 94 -39h345v-60h75v348h-75zM236 895q-3 3 -7 0q-7 -7 -18.5 -19.5t-29 -37t-17.5 -40.5
q0 -27 20 -46t48.5 -19t48.5 19t20 46q0 16 -17 40.5t-28.5 37t-19.5 19.5zM233 776q-13 0 -22 8.5t-9 20.5q0 15 31 45q30 -30 30 -45q0 -12 -9 -20.5t-21 -8.5zM136 737q-3 3 -6 0q-53 -51 -53 -80q0 -22 16.5 -38t39.5 -16t40 16t17 38q0 13 -14 33.5t-24 31t-16 15.5z
M134 639q-10 0 -17.5 7t-7.5 16q0 12 25 36q24 -24 24 -36q0 -9 -7 -16t-17 -7zM361 737q-3 3 -6 0q-54 -51 -54 -80q0 -22 16.5 -38t40 -16t40 16t16.5 38q0 13 -14 33.5t-24 31t-15 15.5zM358 639q-10 0 -17 7t-7 16q0 12 24 36q25 -24 25 -36q0 -9 -7.5 -16t-17.5 -7z
M835 79q-3 -4 0 -8q7 -7 19 -18.5t37 -28.5t41 -17q27 0 46 20t19 48t-19 48t-46 20q-16 0 -41 -17t-37 -28.5t-19 -18.5zM953 75q0 -12 -8.5 -21t-19.5 -9q-16 0 -46 30q31 31 46 31q11 0 19.5 -9t8.5 -22zM778 -8q-4 -1 -3 -5q5 -74 27 -92q17 -14 40 -11.5t37.5 20.5
t13 41t-18.5 37q-10 8 -34.5 10.5t-39 1.5t-22.5 -2v0zM852 -73q-6 -7 -16 -8.5t-17 4.5q-9 8 -12 42q34 4 43 -4q8 -6 8.5 -16t-6.5 -18zM775 183q0 -4 4 -4q74 -7 95 11q17 15 18.5 37.5t-14 40.5t-38 20t-39.5 -12q-10 -8 -16.5 -32.5t-8 -38.5t-1.5 -22zM851 245
q6 -7 5.5 -17t-7.5 -16q-9 -8 -43 -5q2 34 11 42q8 6 17.5 5t16.5 -9zM851 245z" />
    <glyph glyph-name="uniE62A" unicode="&#xe62a;" 
d="M911 770q0 59 -130 89q-110 25 -264.5 25t-264.5 -25q-130 -30 -130 -89v-6v-5v-767q0 -6 2 -12q15 -47 128 -73q110 -25 264.5 -25t264.5 25q112 26 127 73q3 6 3 12v767v5v6zM283 803q99 20 233 20t234 -20q72 -14 97 -33q-25 -19 -97 -33q-100 -20 -234 -20t-233 20
q-73 14 -97 33q24 19 97 33zM750 -37q-100 -20 -234 -20t-233 20q-83 16 -101 36v704q28 -12 70 -22q110 -25 264.5 -25t264.5 25q41 10 69 22v-704q-17 -20 -100 -36zM516 245q52 0 89 37t37 89q0 35 -17 65h-1q-27 53 -83 131l-2 2v1l-1 1l-1 1h-1l-2 2v0q-1 1 -2 1v1h-1
q-1 1 -2 1l-1 1h-1h-2l-1 1h-2h-1q-1 0 -2 1h-1h-1h-1h-2q-1 0 -2 -1h-1h-2l-1 -1h-2h-1l-1 -1q-1 0 -2 -1h-1l-2 -2v0l-2 -2h-1l-1 -1l-1 -1v0q-1 -2 -2 -2q-59 -80 -85 -133q-17 -29 -17 -64q0 -52 37 -89t89 -37zM516 497q38 -57 55 -90l1 -1v-1q10 -15 10 -34
q0 -27 -19.5 -46t-46.5 -19t-46 19t-19 46q0 19 9 34q1 2 2 3q16 34 54 89zM768 168.5q-12 4.5 -23.5 -1t-15.5 -16.5q-6 -17 -20.5 -26.5t-31.5 -9.5q-33 0 -49 27q-1 20 -19 26q-6 2 -12 2v0q-6 0 -12 -2q-18 -6 -19 -26q-16 -27 -49 -27q-17 0 -31.5 9.5t-20.5 26.5
q-7 19 -28 19t-29 -19q-6 -17 -20.5 -26.5t-31.5 -9.5t-31.5 9.5t-20.5 26.5q-5 11 -16.5 16.5t-23 1t-17 -16t-0.5 -23.5q13 -34 43 -54.5t66 -20.5q47 0 81 33q34 -33 80 -33t80 31q34 -31 80 -31q36 0 66 20.5t43 54.5q4 12 -1 23.5t-17 16z" />
  </font>
</defs>
</svg>
